<svg width="189" height="40" viewBox="0 0 189 40" fill="none" xmlns="http://www.w3.org/2000/svg">
<mask id="mask0_1286_1290" style="mask-type:luminance" maskUnits="userSpaceOnUse" x="0" y="0" width="189" height="40">
<path d="M188.8 0H0V40H188.8V0Z" fill="white"/>
</mask>
<g mask="url(#mask0_1286_1290)">
<path d="M146.339 26.4048V14.2286H154.852V9.6986H144.188V8.37411C145.14 7.77854 145.963 6.99869 146.608 6.08053C147.802 4.34107 147.979 2.73085 147.979 0.685738V-0.00756836H141.234V9.68368H134.426V14.2137H141.234V30.6416C141.234 36.3919 143.972 39.1376 149.744 39.1376H154.852V34.6075H154.837V34.5927H146.334V27.5205C146.334 27.1651 146.334 26.7899 146.334 26.3923" fill="#2B2B2B"/>
<path d="M36.2383 39.1503V9.69632H41.346V14.455C41.346 14.455 43.1207 14.455 43.1381 14.455C43.8848 11.2245 46.4536 8.84644 52.1263 8.84644C59.2178 8.84644 63.4743 13.0932 63.4743 20.7418V39.1503H58.6005V21.5917C58.6005 16.2093 55.5314 13.3765 50.4239 13.3765C44.7511 13.3765 41.346 16.7759 41.346 23.8554V39.1503H36.2383Z" fill="#2B2B2B"/>
<path d="M82.6548 8.84622C87.5335 8.84622 91.1452 10.7124 92.1956 14.7032H93.9903V-0.00756836H98.8814V39.1426H93.9903V34.1205C93.9903 34.1205 92.1906 34.1205 92.1956 34.1205C91.6356 38.1312 87.5335 39.9925 82.6548 39.9925C75.5609 39.9925 68.4668 34.8959 68.4668 24.4144C68.4668 13.9329 75.5583 8.83883 82.6548 8.83883V8.84622ZM83.8471 35.4599C89.8036 35.4599 94.0526 31.484 94.0526 24.4144C94.0526 17.3448 89.7961 13.3689 83.8471 13.3689C77.8982 13.3689 73.6417 17.3448 73.6417 24.4144C73.6417 31.484 77.8982 35.4599 83.8471 35.4599Z" fill="#2B2B2B"/>
<path d="M115.354 21.9345C115.583 21.9345 119.088 21.8623 120.728 21.8748C122.192 21.8873 123.904 21.8748 125.37 21.8897H126.132V19.8868C126.132 15.6947 123.976 13.2595 118.754 13.2595C113.532 13.2595 111.436 15.6947 111.322 18.7537H106.047C106.274 13.1452 110.247 8.84131 118.754 8.84131C127.262 8.84131 131.071 13.1452 131.071 20.1701V39.145H126.197L126.182 34.6722H124.392C123.78 37.8181 120.97 40.0023 115.929 40.0023C109.119 40.0023 104.579 36.1508 104.579 30.4876C104.539 28.9231 104.947 27.3799 105.756 26.0396C106.646 24.7181 107.916 23.6961 109.398 23.1073C111.297 22.3433 113.324 21.9461 115.372 21.9369L115.354 21.9345ZM116.79 35.5842C122.461 35.5842 126.135 32.473 126.135 26.2407H115.867C115.348 26.234 114.829 26.2597 114.314 26.3178C111.093 26.7005 109.696 28.1741 109.696 30.485C109.696 33.5986 112.25 35.5817 116.79 35.5817" fill="#2B2B2B"/>
<path d="M15.6066 8.84644C12.5218 8.84644 9.50615 9.75976 6.94122 11.4708C4.37628 13.1818 2.37721 15.6138 1.19678 18.4591C0.0163696 21.3044 -0.29237 24.4353 0.30964 27.4557C0.91165 30.4762 2.39735 33.2506 4.57885 35.4281C6.76036 37.6055 9.5397 39.0884 12.5654 39.6889C15.591 40.2893 18.7271 39.9807 21.577 38.8018C24.427 37.6229 26.8626 35.6268 28.5761 33.0658C30.2897 30.5049 31.2039 27.4943 31.2034 24.4146C31.2028 20.2855 29.5593 16.3257 26.6345 13.4061C23.7095 10.4866 19.7428 8.84644 15.6066 8.84644ZM15.6066 34.8836C13.5326 34.8836 11.5051 34.2697 9.78055 33.1193C8.05602 31.9689 6.71189 30.3338 5.91818 28.4209C5.12447 26.5079 4.91684 24.4029 5.32146 22.3722C5.72609 20.3413 6.72484 18.4759 8.19143 17.0119C9.65802 15.5477 11.5266 14.5507 13.5608 14.1467C15.595 13.7428 17.7036 13.9501 19.6198 14.7425C21.5359 15.5348 23.1737 16.8767 24.326 18.5983C25.4783 20.3199 26.0934 22.3441 26.0934 24.4146C26.0937 25.7895 25.8226 27.1509 25.2958 28.4213C24.7689 29.6916 23.9964 30.8458 23.0226 31.818C22.0487 32.7903 20.8925 33.5613 19.6201 34.0874C18.3476 34.6135 16.9839 34.8839 15.6066 34.8836Z" fill="#2B2B2B"/>
<path d="M173.207 8.84644C170.122 8.84594 167.106 9.75884 164.541 11.4696C161.975 13.1803 159.976 15.6121 158.795 18.4573C157.614 21.3026 157.305 24.4335 157.907 27.4541C158.509 30.4748 159.994 33.2495 162.176 35.4272C164.357 37.6049 167.136 39.0879 170.162 39.6887C173.188 40.2893 176.324 39.9809 179.175 38.802C182.024 37.6232 184.46 35.6271 186.173 33.0661C187.887 30.5052 188.802 27.4945 188.802 24.4146C188.8 20.2858 187.157 16.3265 184.232 13.407C181.309 10.4875 177.343 8.84709 173.207 8.84644ZM173.207 34.8836C171.133 34.8841 169.104 34.2706 167.38 33.1205C165.655 31.9705 164.311 30.3356 163.517 28.4226C162.722 26.5096 162.514 24.4047 162.919 22.3737C163.324 20.3428 164.322 18.4772 165.788 17.0127C167.255 15.5484 169.124 14.551 171.157 14.1469C173.192 13.7427 175.301 13.9499 177.216 14.7422C179.133 15.5345 180.772 16.8764 181.924 18.598C183.076 20.3197 183.692 22.3439 183.692 24.4146C183.69 27.1905 182.586 29.8525 180.62 31.8157C178.653 33.7788 175.988 34.8823 173.207 34.8836Z" fill="#2B2B2B"/>
</g>
</svg>
