<svg width="151" height="40" viewBox="0 0 151 40" fill="none" xmlns="http://www.w3.org/2000/svg">
<g clip-path="url(#clip0_1592_206)">
<path d="M50.8658 21.6958H49.2305V8.69482H50.8658V21.6958Z" fill="black"/>
<path d="M62.2208 21.6958H60.5782L55.3708 11.6779V21.6958H53.7285V8.69482H55.3708L60.5932 18.758V8.69482H62.2168V21.6958H62.2208Z" fill="black"/>
<path d="M70.7309 18.4104C70.7309 17.7609 70.5536 17.2625 70.2026 16.9188C69.8513 16.5752 69.2169 16.2392 68.2993 15.9106C67.3816 15.5821 66.6833 15.2385 66.1959 14.8798C65.7089 14.521 65.3463 14.1094 65.1086 13.6488C64.8669 13.1881 64.7459 12.6594 64.7459 12.0628C64.7459 11.032 65.0896 10.1861 65.7769 9.51776C66.4642 8.84939 67.3629 8.51709 68.4769 8.51709C69.2396 8.51709 69.9156 8.68702 70.5119 9.02686C71.1086 9.36669 71.5656 9.83872 71.8866 10.4467C72.2076 11.0546 72.3699 11.7192 72.3699 12.4442H70.7273C70.7273 11.6399 70.5346 11.0169 70.1459 10.5788C69.7606 10.137 69.2019 9.91799 68.4769 9.91799C67.8159 9.91799 67.3023 10.103 66.9399 10.4731C66.5773 10.8432 66.3963 11.3605 66.3963 12.0288C66.3963 12.5764 66.5926 13.037 66.9852 13.4071C67.3779 13.7772 67.9859 14.1094 68.8053 14.4002C70.0853 14.8231 70.9992 15.3442 71.5506 15.9635C72.1019 16.5828 72.3776 17.3909 72.3776 18.3915C72.3776 19.445 72.0339 20.2871 71.3503 20.9215C70.6669 21.5559 69.7343 21.873 68.5559 21.873C67.8009 21.873 67.1023 21.7069 66.4643 21.3784C65.8259 21.0499 65.3199 20.5854 64.9536 19.985C64.5876 19.3884 64.4062 18.7011 64.4062 17.9271H66.0489C66.0489 18.7314 66.2716 19.3544 66.7246 19.8038C67.1739 20.2493 67.7856 20.4721 68.5599 20.4721C69.2809 20.4721 69.8209 20.2871 70.1836 19.917C70.5459 19.547 70.7273 19.0448 70.7273 18.4066L70.7309 18.4104Z" fill="black"/>
<path d="M82.1239 10.0995H78.7029V21.6958H77.0679V10.0995H73.6582V8.69482H82.1239V10.0957V10.0995Z" fill="black"/>
<path d="M89.4003 18.2936H85.009L84.0006 21.6958H82.3203L86.508 8.69482H87.909L92.104 21.6958H90.4236L89.3966 18.2936H89.4003ZM85.4356 16.8927H88.9813L87.2026 10.9831L85.4356 16.8927Z" fill="black"/>
<path d="M104.206 21.6958H101.529L96.3141 13.143V21.6958H93.6367V8.69482H96.3141L101.536 17.2665V8.69482H104.206V21.6958Z" fill="#DA272D"/>
<path d="M117.222 15.4921C117.222 16.4852 117.086 17.3764 116.822 18.1656C116.553 18.9548 116.176 19.6231 115.692 20.1707C115.205 20.7182 114.624 21.1411 113.948 21.4356C113.268 21.7302 112.521 21.8774 111.709 21.8774C110.897 21.8774 110.145 21.7302 109.466 21.4356C108.786 21.1411 108.201 20.722 107.71 20.1707C107.219 19.6231 106.838 18.9548 106.562 18.1656C106.286 17.3764 106.15 16.4852 106.15 15.4921V14.9219C106.15 13.9326 106.286 13.0452 106.558 12.2522C106.83 11.4593 107.208 10.7871 107.695 10.2358C108.182 9.68448 108.767 9.25782 109.443 8.96328C110.123 8.66875 110.87 8.52148 111.686 8.52148C112.502 8.52148 113.249 8.66875 113.925 8.96328C114.605 9.25782 115.187 9.68072 115.674 10.2358C116.161 10.7909 116.542 11.463 116.81 12.2522C117.082 13.0452 117.218 13.9364 117.218 14.9219V15.4921H117.222ZM114.507 14.903C114.507 13.5399 114.261 12.5052 113.774 11.7953C113.287 11.0854 112.589 10.7343 111.686 10.7343C110.784 10.7343 110.085 11.0892 109.598 11.7953C109.111 12.5052 108.865 13.5399 108.865 14.903V15.4921C108.865 16.1718 108.93 16.7684 109.058 17.2933C109.186 17.8144 109.371 18.2524 109.613 18.6036C109.855 18.9585 110.149 19.2266 110.5 19.4079C110.852 19.5891 111.252 19.6798 111.705 19.6798C112.611 19.6798 113.302 19.321 113.786 18.6074C114.269 17.8937 114.511 16.8553 114.511 15.4921V14.903H114.507Z" fill="#DA272D"/>
<path d="M119.172 21.6958V8.69482H123.171C124.047 8.69482 124.847 8.84586 125.576 9.14416C126.305 9.44626 126.932 9.86919 127.449 10.4129C127.97 10.9567 128.378 11.61 128.669 12.3727C128.959 13.1355 129.107 13.9813 129.107 14.9065V15.4955C129.107 16.4244 128.963 17.2665 128.672 18.0255C128.385 18.7845 127.978 19.4377 127.449 19.9815C126.924 20.5252 126.293 20.9482 125.561 21.2465C124.828 21.5448 124.02 21.6921 123.14 21.6921H119.168L119.172 21.6958ZM121.849 10.8661V19.5435H123.144C124.205 19.5435 125.01 19.1923 125.565 18.4937C126.12 17.7952 126.395 16.7945 126.395 15.4993V14.8914C126.395 13.5697 126.123 12.5691 125.576 11.8856C125.028 11.2059 124.228 10.8623 123.174 10.8623H121.853L121.849 10.8661Z" fill="#DA272D"/>
<path d="M138.875 16.0619H133.732V19.5435H139.766V21.6958H131.051V8.69482H139.747V10.8661H133.728V13.9662H138.871V16.0657L138.875 16.0619Z" fill="#DA272D"/>
<path d="M148.081 18.2861C148.081 18.0596 148.047 17.8557 147.983 17.6744C147.919 17.4932 147.79 17.3232 147.605 17.1684C147.416 17.0136 147.16 16.8626 146.827 16.7115C146.495 16.5605 146.068 16.4057 145.547 16.2395C144.951 16.0507 144.392 15.8355 143.863 15.5976C143.334 15.3597 142.874 15.0765 142.477 14.7555C142.081 14.4308 141.767 14.0569 141.541 13.634C141.31 13.2111 141.197 12.7164 141.197 12.15C141.197 11.5836 141.314 11.1116 141.548 10.6623C141.782 10.2129 142.115 9.83154 142.538 9.51434C142.961 9.19714 143.47 8.9517 144.056 8.778C144.641 8.6043 145.287 8.51367 145.989 8.51367C146.691 8.51367 147.363 8.61184 147.953 8.81197C148.542 9.01211 149.044 9.29154 149.463 9.64651C149.878 10.0052 150.199 10.4281 150.426 10.919C150.652 11.4099 150.766 11.9461 150.766 12.5314H148.088C148.088 12.2595 148.047 12.0065 147.96 11.7724C147.873 11.5383 147.741 11.3419 147.564 11.1758C147.386 11.0097 147.163 10.8775 146.895 10.7869C146.627 10.6962 146.314 10.6472 145.947 10.6472C145.581 10.6472 145.29 10.6849 145.034 10.7642C144.777 10.8435 144.562 10.9492 144.392 11.0852C144.222 11.2211 144.093 11.3835 144.007 11.5685C143.92 11.7535 143.878 11.9499 143.878 12.1576C143.878 12.588 144.097 12.9468 144.535 13.2338C144.973 13.5245 145.615 13.7926 146.461 14.0418C147.171 14.2608 147.794 14.5063 148.33 14.7744C148.87 15.0425 149.319 15.3446 149.678 15.6844C150.037 16.0243 150.309 16.4057 150.494 16.8286C150.679 17.2515 150.769 17.7311 150.769 18.2673C150.769 18.8374 150.656 19.3472 150.433 19.7928C150.211 20.2384 149.893 20.616 149.482 20.9218C149.07 21.2277 148.576 21.4656 147.994 21.628C147.413 21.7903 146.767 21.8734 146.053 21.8734C145.626 21.8734 145.196 21.8356 144.769 21.7639C144.339 21.6884 143.931 21.5751 143.542 21.4203C143.153 21.2655 142.791 21.0729 142.458 20.8388C142.126 20.6046 141.835 20.3328 141.59 20.0156C141.344 19.7022 141.148 19.3397 141.008 18.9394C140.869 18.5391 140.797 18.0936 140.797 17.6027H143.485C143.485 17.9954 143.55 18.3277 143.674 18.6033C143.799 18.879 143.973 19.098 144.195 19.2679C144.418 19.4378 144.686 19.5624 145.003 19.638C145.321 19.7135 145.672 19.755 146.057 19.755C146.401 19.755 146.703 19.7173 146.959 19.6455C147.216 19.5738 147.428 19.468 147.594 19.3359C147.76 19.2037 147.885 19.0489 147.964 18.8677C148.043 18.6864 148.085 18.49 148.085 18.2824L148.081 18.2861Z" fill="#DA272D"/>
<path d="M53.5051 25.9434V30.9133H52.9225L49.9405 27.2067V30.9133H49.2305V25.9434H49.8131L52.7951 29.65V25.9434H53.5051Z" fill="black"/>
<path d="M55.998 28.426C55.998 26.9718 57.1194 25.8848 58.647 25.8848C60.1747 25.8848 61.2814 26.962 61.2814 28.426C61.2814 29.8901 60.16 30.9673 58.647 30.9673C57.134 30.9673 55.998 29.8803 55.998 28.426ZM60.5714 28.426C60.5714 27.3243 59.7487 26.5164 58.647 26.5164C57.5454 26.5164 56.708 27.3243 56.708 28.426C56.708 29.5278 57.5307 30.3357 58.647 30.3357C59.7634 30.3357 60.5714 29.5278 60.5714 28.426Z" fill="black"/>
<path d="M63.7734 25.9434H65.8691C67.4654 25.9434 68.5524 26.952 68.5524 28.4259C68.5524 29.8997 67.4654 30.9133 65.8691 30.9133H63.7734V25.9434ZM65.8251 30.2963C67.0541 30.2963 67.8424 29.5472 67.8424 28.4308C67.8424 27.3144 67.0541 26.5652 65.8251 26.5652H64.4834V30.3012H65.8251V30.2963Z" fill="black"/>
<path d="M74.6536 30.291V30.9079H71.0449V25.938H74.5506V26.5549H71.7549V28.0826H74.2473V28.6849H71.7549V30.291H74.6536Z" fill="black"/>
<path d="M89.5782 29.6696H86.9343L86.3856 30.9133H85.6562L87.9086 25.9434H88.6086L90.8659 30.9133H90.1219L89.5733 29.6696H89.5782ZM89.3286 29.1016L88.2563 26.668L87.1839 29.1016H89.3286Z" fill="black"/>
<path d="M92.5645 30.345L92.8291 29.7917C93.1961 30.1246 93.8278 30.3694 94.4695 30.3694C95.3261 30.3694 95.6984 30.0365 95.6984 29.6007C95.6984 28.3864 92.6871 29.1502 92.6871 27.3091C92.6871 26.5404 93.2845 25.8892 94.5918 25.8892C95.1745 25.8892 95.7768 26.0458 96.1881 26.3298L95.9528 26.8978C95.5221 26.6236 95.0275 26.4914 94.5918 26.4914C93.7495 26.4914 93.3871 26.844 93.3871 27.2798C93.3871 28.4941 96.3984 27.7351 96.3984 29.5566C96.3984 30.3205 95.7865 30.9717 94.4741 30.9717C93.7151 30.9717 92.9711 30.7171 92.5694 30.345H92.5645Z" fill="black"/>
<path d="M76.9355 30.345L77.1999 29.7917C77.5672 30.1246 78.1989 30.3694 78.8402 30.3694C79.6969 30.3694 80.0692 30.0365 80.0692 29.6007C80.0692 28.3864 77.0579 29.1502 77.0579 27.3091C77.0579 26.5404 77.6552 25.8892 78.9625 25.8892C79.5452 25.8892 80.1475 26.0458 80.5589 26.3298L80.3239 26.8978C79.8929 26.6236 79.3982 26.4914 78.9625 26.4914C78.1202 26.4914 77.7579 26.844 77.7579 27.2798C77.7579 28.4941 80.7692 27.7351 80.7692 29.5566C80.7692 30.3205 80.1572 30.9717 78.8452 30.9717C78.0862 30.9717 77.3419 30.7171 76.9402 30.345H76.9355Z" fill="black"/>
<path d="M105.323 29.6696H102.684L102.136 30.9133H101.406L103.659 25.9434H104.359L106.616 30.9133H105.872L105.323 29.6696ZM105.079 29.1016L104.006 26.668L102.934 29.1016H105.079Z" fill="black"/>
<path d="M111.635 30.345L111.899 29.7917C112.266 30.1246 112.898 30.3694 113.539 30.3694C114.396 30.3694 114.768 30.0365 114.768 29.6007C114.768 28.3864 111.757 29.1502 111.757 27.3091C111.757 26.5404 112.355 25.8892 113.662 25.8892C114.245 25.8892 114.847 26.0458 115.258 26.3298L115.028 26.8978C114.592 26.6236 114.103 26.4914 113.667 26.4914C112.82 26.4914 112.457 26.844 112.457 27.2798C112.457 28.4941 115.469 27.7351 115.469 29.5566C115.469 30.3205 114.857 30.9717 113.544 30.9717C112.785 30.9717 112.041 30.7171 111.64 30.345H111.635Z" fill="black"/>
<path d="M121.517 30.291V30.9079H117.908V25.938H121.419V26.5549H118.618V28.0826H121.111V28.6849H118.618V30.291H121.517Z" fill="black"/>
<path d="M127.399 30.9133L126.327 29.3856C126.229 29.3954 126.121 29.4003 126.013 29.4003H124.784V30.9133H124.074V25.9434H126.013C127.306 25.9434 128.089 26.5995 128.089 27.6767C128.089 28.4406 127.693 28.9988 126.997 29.2436L128.177 30.9133H127.404H127.399ZM127.374 27.6767C127.374 26.9667 126.9 26.5603 125.989 26.5603H124.779V28.798H125.989C126.9 28.798 127.374 28.3867 127.374 27.6767Z" fill="black"/>
<path d="M134.964 25.9434L132.785 30.9133H132.085L129.896 25.9434H130.66L132.447 30.027L134.254 25.9434H134.964Z" fill="black"/>
<path d="M137.004 25.9434H137.714V30.9133H137.004V25.9434Z" fill="black"/>
<path d="M140.213 28.426C140.213 26.9571 141.334 25.8848 142.847 25.8848C143.611 25.8848 144.282 26.1492 144.737 26.6584L144.277 27.1089C143.895 26.7025 143.425 26.5213 142.877 26.5213C141.755 26.5213 140.923 27.3292 140.923 28.4309C140.923 29.5326 141.755 30.3406 142.877 30.3406C143.425 30.3406 143.895 30.1496 144.277 29.7432L144.737 30.1937C144.282 30.7029 143.616 30.9722 142.842 30.9722C141.339 30.9722 140.213 29.8999 140.213 28.4309V28.426Z" fill="black"/>
<path d="M150.769 30.291V30.9079H147.16V25.938H150.671V26.5549H147.87V28.0826H150.362V28.6849H147.87V30.291H150.769Z" fill="black"/>
<path d="M20 40C31.0457 40 40 31.0457 40 20C40 8.9543 31.0457 0 20 0C8.9543 0 0 8.9543 0 20C0 31.0457 8.9543 40 20 40Z" fill="url(#paint0_linear_1592_206)"/>
<g opacity="0.2">
<path d="M26.4509 13.6591L22.5227 17.5874C21.2463 18.8638 19.1716 18.8638 17.8952 17.5874L13.967 13.6591C13.6829 13.3751 13.6829 12.9149 13.967 12.6308L19.6948 6.90299C19.9789 6.61892 20.439 6.61892 20.7231 6.90299L26.4509 12.6308C26.735 12.9149 26.735 13.3751 26.4509 13.6591Z" fill="black"/>
<path d="M6.81657 19.7826L12.5444 14.0548C12.8285 13.7708 13.2886 13.7708 13.5727 14.0548L17.501 17.9831C18.7774 19.2595 18.7774 21.3341 17.501 22.6106L13.5727 26.5388C13.2886 26.8229 12.8285 26.8229 12.5444 26.5388L6.81657 20.811C6.5325 20.5269 6.5325 20.0667 6.81657 19.7826Z" fill="black"/>
<path d="M33.6026 20.811L27.8748 26.5388C27.5907 26.8229 27.1306 26.8229 26.8465 26.5388L22.9183 22.6106C21.6418 21.3341 21.6418 19.2595 22.9183 17.9831L26.8465 14.0548C27.1306 13.7708 27.5907 13.7708 27.8748 14.0548L33.6026 19.7826C33.8866 20.0667 33.8866 20.5269 33.6026 20.811Z" fill="black"/>
<path d="M13.9689 26.9329L17.8971 23.0047C19.1736 21.7283 21.2482 21.7283 22.5246 23.0047L26.4529 26.9329C26.7369 27.217 26.7369 27.6772 26.4529 27.9612L20.7251 33.6891C20.441 33.9731 19.9808 33.9731 19.6967 33.6891L13.9689 27.9612C13.6848 27.6772 13.6848 27.217 13.9689 26.9329Z" fill="black"/>
</g>
<path d="M26.449 13.0644L22.5207 16.9927C21.2443 18.2691 19.1697 18.2691 17.8933 16.9927L13.965 13.0644C13.6809 12.7804 13.6809 12.3202 13.965 12.0361L19.6928 6.30829C19.9769 6.02419 20.4371 6.02419 20.7212 6.30829L26.449 12.0361C26.7331 12.3202 26.7331 12.7804 26.449 13.0644Z" fill="white"/>
<path d="M6.81461 19.1909L12.5424 13.463C12.8265 13.179 13.2867 13.179 13.5707 13.463L17.499 17.3913C18.7754 18.6677 18.7754 20.7424 17.499 22.0188L13.5707 25.947C13.2867 26.2311 12.8265 26.2311 12.5424 25.947L6.81461 20.2192C6.53055 19.9351 6.53055 19.475 6.81461 19.1909Z" fill="white"/>
<path d="M33.6006 20.2158L27.8729 25.9436C27.5888 26.2277 27.1286 26.2277 26.8445 25.9436L22.9163 22.0154C21.6399 20.739 21.6399 18.6643 22.9163 17.3879L26.8445 13.4596C27.1286 13.1756 27.5888 13.1756 27.8729 13.4596L33.6006 19.1875C33.8849 19.4715 33.8849 19.9317 33.6006 20.2158Z" fill="white"/>
<path d="M13.965 26.3411L17.8932 22.4129C19.1697 21.1365 21.2443 21.1365 22.5207 22.4129L26.449 26.3411C26.733 26.6252 26.733 27.0854 26.449 27.3694L20.7212 33.0972C20.4371 33.3815 19.9769 33.3815 19.6928 33.0972L13.965 27.3694C13.6809 27.0854 13.6809 26.6252 13.965 26.3411Z" fill="white"/>
</g>
<defs>
<linearGradient id="paint0_linear_1592_206" x1="20" y1="40" x2="20" y2="0" gradientUnits="userSpaceOnUse">
<stop stop-color="#950026"/>
<stop offset="0.5" stop-color="#F22300"/>
<stop offset="1" stop-color="#F78400"/>
</linearGradient>
<clipPath id="clip0_1592_206">
<rect width="151" height="40" fill="white"/>
</clipPath>
</defs>
</svg>
