<svg xmlns="http://www.w3.org/2000/svg" width="231.149" height="33.103" viewBox="0 0 231.149 33.103">
  <g id="web3auth-logo" transform="translate(-1.79 -17.895)">
    <path id="Path_45892" data-name="Path 45892" d="M231.91,48.285a9.261,9.261,0,0,1-4.2-.955,7.9,7.9,0,0,1-1.872-1.309c-.335-.32-1.014-.1-1.014.355v.683a.568.568,0,0,1-.574.562h-2.755a.568.568,0,0,1-.575-.562v-28.6a.568.568,0,0,1,.575-.562h2.742a.568.568,0,0,1,.574.562V28.523c0,.458.68.676,1.016.357a8.024,8.024,0,0,1,1.883-1.312,9.261,9.261,0,0,1,4.2-.955,9.013,9.013,0,0,1,6.96,3.155,10.973,10.973,0,0,1,2.928,7.68,10.878,10.878,0,0,1-2.928,7.68A9.013,9.013,0,0,1,231.91,48.285Zm-.637-3.487a6.147,6.147,0,0,0,4.711-2.076,7.392,7.392,0,0,0,1.91-5.272,7.485,7.485,0,0,0-1.91-5.272,6.431,6.431,0,0,0-9.463,0,7.585,7.585,0,0,0-1.867,5.272,7.644,7.644,0,0,0,1.867,5.314A6.252,6.252,0,0,0,231.274,44.8ZM207.5,48.285a10.056,10.056,0,0,1-7.554-3.072,10.714,10.714,0,0,1-2.971-7.763,10.836,10.836,0,0,1,2.886-7.722,9.62,9.62,0,0,1,7.384-3.114,9.5,9.5,0,0,1,7.342,2.948,11.136,11.136,0,0,1,2.762,7.96.68.68,0,0,1-.7.634H201.67a.636.636,0,0,0-.656.685,6.382,6.382,0,0,0,1.992,4.131,6.6,6.6,0,0,0,4.668,1.827,6.358,6.358,0,0,0,5.542-3.145.685.685,0,0,1,.86-.248l2.333,1.113a.6.6,0,0,1,.27.856,10.152,10.152,0,0,1-3.573,3.458A10.81,10.81,0,0,1,207.5,48.285ZM201.491,34.2a.622.622,0,0,0,.625.8h10.336a.613.613,0,0,0,.635-.714,4.888,4.888,0,0,0-1.679-2.773,6.112,6.112,0,0,0-4.244-1.412,5.819,5.819,0,0,0-3.819,1.328A6.141,6.141,0,0,0,201.491,34.2Zm-5.709-6.14a.6.6,0,0,0-.581-.78h-2.694a.609.609,0,0,0-.586.428l-3.974,13.2a.578.578,0,0,1-1.1.016l-4.422-13.23a.61.61,0,0,0-.58-.411H178.7a.609.609,0,0,0-.58.41l-4.463,13.24a.578.578,0,0,1-1.1-.017l-3.976-13.2a.609.609,0,0,0-.586-.428H165.22a.6.6,0,0,0-.581.78l6.312,19.148a.609.609,0,0,0,.581.414h3.057a.609.609,0,0,0,.581-.414l4.454-13.54a.578.578,0,0,1,1.093,0l4.492,13.543a.609.609,0,0,0,.58.413h3.1a.609.609,0,0,0,.581-.414ZM316.744,46.416a6.087,6.087,0,0,0,4.244,1.536,11.352,11.352,0,0,0,3.021-.369.529.529,0,0,0,.353-.7l-.833-2.3a.633.633,0,0,0-.788-.359c-.086.027-.176.052-.267.077a4.618,4.618,0,0,1-.891.083,2.7,2.7,0,0,1-1.825-.706,3.739,3.739,0,0,1-.806-2.781V31.327a.568.568,0,0,1,.574-.562h3.944a.568.568,0,0,0,.574-.562V27.84a.568.568,0,0,0-.574-.562h-3.944a.568.568,0,0,1-.574-.562v-8.26a.568.568,0,0,0-.574-.562h-2.755a.568.568,0,0,0-.574.562v8.26a.568.568,0,0,1-.574.562h-2.5a.568.568,0,0,0-.574.562V30.2a.568.568,0,0,0,.574.562h2.5a.568.568,0,0,1,.574.562V42.14A5.674,5.674,0,0,0,316.744,46.416Zm-55.757-.623a7.937,7.937,0,0,0,2.843-6.227,7.027,7.027,0,0,0-4-6.358.561.561,0,0,1-.029-.95,6.762,6.762,0,0,0,3.052-5.853,6.956,6.956,0,0,0-2.589-5.6,9.666,9.666,0,0,0-6.493-2.242,9.1,9.1,0,0,0-5.39,1.619,8.855,8.855,0,0,0-3.039,3.676.6.6,0,0,0,.338.792l2.412,1a.694.694,0,0,0,.885-.359,4.914,4.914,0,0,1,4.794-3.075,5.593,5.593,0,0,1,3.692,1.162,3.751,3.751,0,0,1,1.4,3.031,4.192,4.192,0,0,1-1.485,3.321,5.742,5.742,0,0,1-3.819,1.245H252a.639.639,0,0,0-.646.632v2.306a.64.64,0,0,0,.646.632h1.858a6.339,6.339,0,0,1,4.2,1.453,4.444,4.444,0,0,1,1.782,3.57,4.644,4.644,0,0,1-1.7,3.612,6.22,6.22,0,0,1-4.117,1.453,5.827,5.827,0,0,1-3.734-1.245,6.864,6.864,0,0,1-1.986-2.973.686.686,0,0,0-.894-.406l-2.361.962a.6.6,0,0,0-.359.753,9.674,9.674,0,0,0,3.435,4.652,9.8,9.8,0,0,0,5.9,1.91A10.09,10.09,0,0,0,260.987,45.794Zm9.771-4.4a3.322,3.322,0,0,1,1.57-2.781,6.82,6.82,0,0,1,3.989-1.121,8.437,8.437,0,0,1,4.841,1.229.556.556,0,0,1,.243.489,5.541,5.541,0,0,1-1.944,3.887,6.219,6.219,0,0,1-4.371,1.785,4.92,4.92,0,0,1-3.056-1A3.045,3.045,0,0,1,270.758,41.393Zm11.882-12.5a11.14,11.14,0,0,0-14.876,1.229.531.531,0,0,0,.151.787l2.462,1.517a.616.616,0,0,0,.794-.145,5.965,5.965,0,0,1,4.849-2.267A5.553,5.553,0,0,1,279.8,31.43a4.5,4.5,0,0,1,1.575,3.272.593.593,0,0,1-.847.54,12.8,12.8,0,0,0-4.844-.823,10.538,10.538,0,0,0-6.535,1.868,6.018,6.018,0,0,0-2.419,5.023,6.329,6.329,0,0,0,2.291,4.982,8.58,8.58,0,0,0,5.771,1.993,7.488,7.488,0,0,0,6.45-3.487v2.261a.568.568,0,0,0,.574.562h2.755a.568.568,0,0,0,.574-.562V35.083A7.878,7.878,0,0,0,282.641,28.9ZM307.8,47.023a.6.6,0,0,1-.61.6H304.5a.6.6,0,0,1-.61-.6v-.667c0-.43-.666-.637-.979-.335a8.634,8.634,0,0,1-11.5.146,8.549,8.549,0,0,1-2.037-6.1V27.875a.6.6,0,0,1,.61-.6h2.684a.6.6,0,0,1,.61.6v11.94q.127,4.982,5.135,4.982a4.943,4.943,0,0,0,3.9-1.827,6.682,6.682,0,0,0,1.57-4.442V27.875a.6.6,0,0,1,.61-.6h2.684a.6.6,0,0,1,.61.6Zm20.169-28.567a.568.568,0,0,1,.574-.562h2.755a.568.568,0,0,1,.575.562V28.542c0,.43.663.635.974.331a7.886,7.886,0,0,1,1.741-1.263,8.1,8.1,0,0,1,3.862-1,7.666,7.666,0,0,1,5.856,2.159,8.291,8.291,0,0,1,2.079,6.061V47.058a.568.568,0,0,1-.574.562h-2.755a.568.568,0,0,1-.574-.562V35.581q0-5.48-4.965-5.48a5.1,5.1,0,0,0-4.032,1.951,6.733,6.733,0,0,0-1.612,4.484V47.058a.568.568,0,0,1-.575.562h-2.755a.568.568,0,0,1-.574-.562Z" transform="translate(-113.442)" fill="#0f1222" fill-rule="evenodd"/>
    <path id="Path_45893" data-name="Path 45893" d="M107.261,44.4a.859.859,0,0,0,1.658,0l6.542-24.285a1.763,1.763,0,0,0-1.71-2.216h-4.034a1.768,1.768,0,0,0-1.71,1.3l-3.689,13.695a1.113,1.113,0,0,0,0,.58Z" transform="translate(-71.409)" fill="#0364ff"/>
    <path id="Path_45894" data-name="Path 45894" d="M12.989,32.876a1.114,1.114,0,0,1,0,.58L10.046,44.378a.859.859,0,0,1-1.658,0L1.851,20.111a1.763,1.763,0,0,1,1.71-2.216H7.595A1.768,1.768,0,0,1,9.3,19.2Z" transform="translate(0)" fill="#0364ff"/>
    <path id="Path_45895" data-name="Path 45895" d="M39.7,49.734A1.709,1.709,0,0,1,38.045,51H33.917a1.706,1.706,0,0,1-1.651-2.146l7.943-29.574a1.869,1.869,0,0,1,1.806-1.382h4.8a1.869,1.869,0,0,1,1.806,1.382l7.943,29.574A1.706,1.706,0,0,1,54.914,51H50.786a1.709,1.709,0,0,1-1.651-1.264L45.215,35.14a.829.829,0,0,0-1.6,0Z" transform="translate(-21.192)" fill="#0364ff"/>
    <path id="Path_45896" data-name="Path 45896" d="M66.652,99.022a.431.431,0,0,1-.434-.535l1.45-5.119a.456.456,0,0,1,.868,0l1.45,5.119a.431.431,0,0,1-.434.535Z" transform="translate(-44.878 -52.365)" fill="#0364ff"/>
  </g>
</svg>
