<svg width="218" height="40" viewBox="0 0 218 40" fill="none" xmlns="http://www.w3.org/2000/svg">
<mask id="mask0_1286_1307" style="mask-type:luminance" maskUnits="userSpaceOnUse" x="0" y="0" width="218" height="40">
<path d="M217.822 0H0V39.6222H217.822V0Z" fill="white"/>
</mask>
<g mask="url(#mask0_1286_1307)">
<path d="M68.0117 2.75391H74.0784V29.2761H87.7451V34.4317H68.0117V2.75391Z" fill="black"/>
<path d="M93.356 0.043457C94.3227 0.043457 95.1227 0.365679 95.756 0.999012C96.3894 1.63234 96.7116 2.43234 96.7116 3.39901C96.7116 4.36568 96.3894 5.12123 95.756 5.77679C95.1227 6.43234 94.3227 6.75457 93.356 6.75457C92.3894 6.75457 91.6338 6.43234 91.0005 5.77679C90.3671 5.12123 90.0449 4.33234 90.0449 3.39901C90.0449 2.46568 90.3671 1.63234 91.0005 0.999012C91.6338 0.365679 92.4227 0.043457 93.356 0.043457ZM90.456 10.3212H96.3449V34.4324H90.456V10.3101V10.3212Z" fill="black"/>
<path d="M101.822 10.3093H107.711V34.4315H101.822V10.3093ZM119.112 20.9426C119.112 19.1649 118.645 17.776 117.734 16.776C116.823 15.776 115.523 15.2871 113.867 15.2871C111.967 15.3204 110.467 16.0204 109.367 17.3871C108.267 18.7649 107.711 20.476 107.711 22.5204H106.122C106.122 19.5982 106.533 17.2204 107.344 15.3871C108.156 13.5649 109.333 12.2204 110.856 11.3649C112.378 10.5093 114.167 10.0759 116.223 10.0759C118.067 10.0759 119.645 10.4537 120.956 11.2093C122.267 11.9649 123.278 13.0315 123.989 14.3982C124.7 15.776 125.056 17.4204 125.056 19.3538V34.4204H119.123V20.9315L119.112 20.9426ZM136.445 20.9426C136.445 19.1649 135.978 17.776 135.045 16.776C134.112 15.776 132.812 15.2871 131.156 15.2871C129.256 15.3204 127.767 16.0204 126.678 17.3871C125.589 18.7649 125.045 20.476 125.045 22.5204H123.456C123.456 19.5982 123.867 17.2204 124.678 15.3871C125.489 13.5649 126.656 12.2204 128.167 11.3649C129.678 10.5093 131.467 10.0759 133.556 10.0759C135.367 10.0759 136.934 10.4537 138.245 11.2093C139.556 11.9649 140.578 13.0315 141.3 14.3982C142.023 15.776 142.389 17.4204 142.389 19.3538V34.4204H136.456V20.9315L136.445 20.9426Z" fill="black"/>
<path d="M150.024 0.043457C150.991 0.043457 151.791 0.365679 152.424 0.999012C153.057 1.63234 153.38 2.43234 153.38 3.39901C153.38 4.36568 153.057 5.12123 152.424 5.77679C151.791 6.43234 150.991 6.75457 150.024 6.75457C149.057 6.75457 148.302 6.43234 147.668 5.77679C147.035 5.12123 146.713 4.33234 146.713 3.39901C146.713 2.46568 147.035 1.63234 147.668 0.999012C148.302 0.365679 149.091 0.043457 150.024 0.043457ZM147.124 10.3212H153.013V34.4324H147.124V10.3101V10.3212Z" fill="black"/>
<path d="M158.49 10.3093H164.368V34.4315H158.49V10.3093ZM176.09 20.9426C176.09 19.1982 175.612 17.8204 174.668 16.8204C173.712 15.8204 172.401 15.3315 170.712 15.3315C168.746 15.3315 167.201 16.0204 166.068 17.3871C164.935 18.7649 164.368 20.4871 164.368 22.5649H162.779C162.779 19.6093 163.19 17.2204 164.024 15.3871C164.857 13.5649 166.046 12.2204 167.601 11.3649C169.157 10.5093 170.979 10.0759 173.057 10.0759C174.924 10.0759 176.524 10.4537 177.857 11.2093C179.179 11.9649 180.212 13.0315 180.935 14.3982C181.657 15.776 182.024 17.4204 182.024 19.3538V34.4204H176.09V20.9315V20.9426Z" fill="black"/>
<path d="M194.969 23.7982C193.436 23.7982 192.28 24.0426 191.525 24.5204C190.769 25.0093 190.391 25.8093 190.391 26.9204C190.391 27.9426 190.78 28.776 191.547 29.4093C192.314 30.0426 193.369 30.3649 194.691 30.3649C195.869 30.3649 196.936 30.1649 197.88 29.7537C198.825 29.3426 199.58 28.7871 200.147 28.076C200.703 27.3649 201.025 26.576 201.125 25.6982L202.125 29.9093C201.403 31.476 200.28 32.6649 198.78 33.4871C197.269 34.2982 195.447 34.7093 193.303 34.7093C191.58 34.7093 190.091 34.376 188.825 33.7093C187.558 33.0426 186.58 32.1426 185.88 31.0204C185.191 29.8871 184.836 28.6093 184.836 27.1982C184.836 24.9649 185.636 23.2093 187.236 21.9204C188.836 20.6426 191.103 19.9871 194.025 19.9537H201.769V23.7982H194.98H194.969ZM201.08 19.2315C201.08 17.7871 200.625 16.6426 199.703 15.8093C198.78 14.976 197.414 14.5649 195.603 14.5649C194.491 14.5649 193.314 14.7649 192.091 15.176C190.869 15.5871 189.636 16.1649 188.403 16.9204L186.28 13.1204C187.425 12.4315 188.525 11.8649 189.58 11.4204C190.636 10.987 191.747 10.6537 192.903 10.4204C194.058 10.1981 195.403 10.0759 196.903 10.0759C200.069 10.0759 202.514 10.8315 204.236 12.3426C205.958 13.8537 206.825 15.9315 206.858 18.5871L206.903 34.4315H201.114L201.069 19.2204L201.08 19.2315Z" fill="black"/>
<path d="M211.934 0.85498H217.811V34.4327H211.934V0.85498Z" fill="black"/>
<path d="M19.8111 39.6222C8.88889 39.6222 0 30.7333 0 19.8111C0 8.88889 8.88889 0 19.8111 0C30.7333 0 39.6222 8.88889 39.6222 19.8111H34.0667C34.0667 11.9556 27.6667 5.55556 19.8111 5.55556C11.9556 5.55556 5.55556 11.9556 5.55556 19.8111C5.55556 27.6667 11.9556 34.0667 19.8111 34.0667C22.3111 34.0667 24.7667 33.4111 26.9111 32.1778L29.6778 36.9889C26.6889 38.7111 23.2778 39.6222 19.8 39.6222H19.8111Z" fill="black"/>
<path d="M36.7877 39.6222C33.121 39.6222 29.5432 38.6111 26.4432 36.7111C20.521 33.0778 16.9766 26.7556 16.9766 19.8111C16.9766 12.8667 20.7877 6.16667 26.9099 2.63333C29.8988 0.911111 33.3099 0 36.7877 0C47.7099 0 56.5988 8.88889 56.5988 19.8111C56.5988 30.7333 47.7099 39.6222 36.7877 39.6222ZM36.7877 5.55556C34.2877 5.55556 31.8321 6.21111 29.6877 7.44444C25.2766 9.98889 22.5321 14.7222 22.5321 19.8111C22.5321 24.9 25.0766 29.3556 29.3432 31.9778C31.5766 33.3444 34.1543 34.0667 36.7877 34.0667C44.6432 34.0667 51.0432 27.6667 51.0432 19.8111C51.0432 11.9556 44.6432 5.55556 36.7877 5.55556Z" fill="black"/>
</g>
</svg>
