<svg width="229" height="40" viewBox="0 0 229 40" fill="none" xmlns="http://www.w3.org/2000/svg">
<g clip-path="url(#clip0_1283_366)">
<path d="M0 25.9832C0 18.2418 6.4475 11.9663 14.4009 11.9663H38.5944C46.5478 11.9663 52.9953 18.2418 52.9953 25.9832C52.9953 33.7245 46.5478 40.0001 38.5944 40.0001H14.4009C6.4475 40.0001 0 33.7245 0 25.9832Z" fill="#191B20"/>
<path d="M19.5859 25.9841C19.5859 20.0456 24.4861 15.2314 30.5306 15.2314H37.443C43.4877 15.2314 48.3877 20.0456 48.3877 25.9841C48.3877 31.9226 43.4877 36.7369 37.443 36.7369H30.5306C24.4861 36.7369 19.5859 31.9226 19.5859 25.9841Z" fill="url(#paint0_linear_1283_366)"/>
<path d="M72.6599 18.4324C71.9084 18.7349 71.2262 19.1926 70.6564 19.7764C70.0668 20.4498 69.5962 21.2225 69.2658 22.0597C68.8962 23.039 68.7181 24.0826 68.7417 25.1315C68.7072 26.1798 68.8752 27.225 69.2361 28.2075C69.5554 29.0509 70.0191 29.8298 70.6057 30.508C71.1818 31.1184 71.8753 31.6009 72.643 31.9254C73.4401 32.2444 74.2889 32.4081 75.1451 32.408C75.913 32.4175 76.6758 32.2801 77.3939 32.0029C78.0273 31.7814 78.618 31.449 79.1394 31.0207C79.599 30.6296 79.983 30.1548 80.2723 29.6206C80.4298 29.3571 80.5711 29.0837 80.695 28.8019C80.776 28.6182 80.9215 28.472 81.1031 28.3924C81.2846 28.3125 81.4888 28.305 81.6755 28.3712L86.2024 29.935C86.4016 30.0029 86.5663 30.1484 86.6607 30.3398C86.7549 30.5311 86.771 30.7527 86.7054 30.9561C86.4239 31.7817 86.0464 32.5699 85.5811 33.304C84.9107 34.3513 84.077 35.2797 83.1127 36.0526C82.0677 36.9154 80.8892 37.5953 79.6255 38.0645C78.1712 38.5607 76.6448 38.8009 75.1114 38.7754C73.342 38.7921 71.5898 38.4235 69.9716 37.6939C68.3894 37.0496 66.9517 36.0852 65.7449 34.8593C64.5343 33.618 63.5788 32.1431 62.9341 30.521C62.2536 28.7979 61.916 26.9543 61.9407 25.0969C61.9376 23.2224 62.2936 21.3654 62.989 19.63C63.6133 18.0289 64.5505 16.5737 65.7436 15.3533C66.9366 14.1328 68.3608 13.1723 69.9293 12.5301C71.5527 11.8595 73.2926 11.5312 75.0437 11.5651C76.6066 11.5609 78.1598 11.8155 79.6424 12.3191C80.89 12.8033 82.0587 13.4773 83.1085 14.318C84.0634 15.0872 84.8725 16.0274 85.4965 17.0925C85.9492 17.8528 86.3178 18.6618 86.5955 19.5051C86.6594 19.7079 86.642 19.9283 86.547 20.1179C86.4519 20.3077 86.287 20.4513 86.0884 20.5174L81.4388 22.0771C81.2452 22.1407 81.0351 22.1266 80.8514 22.0377C80.6675 21.9489 80.5239 21.7919 80.4498 21.5988C80.1074 20.7568 79.6046 19.9926 78.9704 19.3499C78.125 18.4581 76.8317 17.9843 75.1451 17.9756C74.296 17.9674 73.4528 18.1224 72.6599 18.4324Z" fill="#191B20"/>
<path d="M88.666 37.2406L88.8478 1.1384C88.8483 1.03204 88.8694 0.926827 88.9099 0.828778C88.9504 0.730727 89.0094 0.641758 89.0835 0.566948C89.1577 0.49214 89.2456 0.432955 89.3423 0.392776C89.4388 0.352596 89.5422 0.332208 89.6466 0.332775L94.8582 0.358624C95.0684 0.362002 95.2686 0.449142 95.4165 0.601356C95.5642 0.75357 95.6476 0.958739 95.6487 1.17286L95.5894 12.7402C95.5878 12.8874 95.6256 13.0323 95.6989 13.1591C95.7723 13.286 95.8783 13.3899 96.0055 13.4596C96.1327 13.5293 96.2763 13.5621 96.4205 13.5546C96.5648 13.547 96.7043 13.4993 96.8237 13.4166C97.4 13.0004 98.0379 12.6804 98.713 12.4688C99.8951 12.0336 101.142 11.8106 102.399 11.8097C103.839 11.7773 105.268 12.0716 106.583 12.6713C107.701 13.1512 108.694 13.887 109.487 14.8217C110.281 15.7563 110.852 16.8647 111.157 18.0608C111.524 19.3484 111.708 20.6833 111.702 22.0243L111.622 37.3657C111.622 37.4717 111.601 37.5769 111.561 37.6749C111.521 37.773 111.462 37.8619 111.389 37.9369C111.315 38.0116 111.227 38.0709 111.131 38.1111C111.034 38.1514 110.931 38.1717 110.827 38.1712L105.615 38.1453C105.511 38.1448 105.408 38.1232 105.312 38.0821C105.215 38.0408 105.128 37.9808 105.055 37.9051C104.981 37.8295 104.923 37.7398 104.884 37.6413C104.844 37.5428 104.824 37.4374 104.825 37.3311L104.897 23.1875C104.945 21.8848 104.574 20.6018 103.84 19.5341C103.079 18.5389 101.904 18.0651 100.268 18.0566C99.6342 18.0177 98.9995 18.1277 98.4134 18.378C97.8271 18.6281 97.3051 19.0118 96.8872 19.4997C96.0418 20.4774 95.5655 21.7296 95.543 23.0325L95.4711 37.2837C95.4689 37.4983 95.3837 37.7031 95.2342 37.8539C95.0846 38.0047 94.8826 38.0894 94.6722 38.0893L89.4565 38.0549C89.3521 38.0544 89.2489 38.0327 89.1526 37.9916C89.0564 37.9503 88.9692 37.8903 88.8958 37.8146C88.8224 37.739 88.7644 37.6494 88.7249 37.5509C88.6855 37.4524 88.6655 37.347 88.666 37.2406Z" fill="#191B20"/>
<path d="M132.189 12.8538C133.75 13.5127 135.17 14.4756 136.369 15.6886C137.556 16.9345 138.487 18.4094 139.108 20.027C139.767 21.7727 140.087 23.6323 140.051 25.5026C140.075 27.3573 139.736 29.1984 139.053 30.9179C138.418 32.5302 137.471 33.9953 136.268 35.2261C134.33 37.0763 131.91 38.3185 129.298 38.8045C126.686 39.2903 123.992 38.9992 121.537 37.966C119.978 37.305 118.559 36.3407 117.361 35.1269C116.17 33.884 115.239 32.4083 114.622 30.7886C113.955 29.0632 113.633 27.219 113.676 25.3647C113.658 23.4946 113.998 21.6391 114.677 19.9019C115.31 18.2896 116.256 16.8242 117.459 15.5938C118.668 14.3921 120.097 13.4437 121.664 12.8021C125.061 11.5017 128.809 11.5216 132.193 12.8581L132.189 12.8538ZM129.23 32.2706C130.009 31.9705 130.71 31.493 131.28 30.8748C131.883 30.2303 132.357 29.4724 132.675 28.6431C133.065 27.6322 133.26 26.5542 133.25 25.468C133.272 24.3822 133.087 23.3022 132.705 22.2886C132.395 21.4555 131.93 20.6917 131.335 20.0397C130.769 19.4171 130.073 18.9324 129.298 18.6225C127.759 17.9892 126.041 17.9798 124.496 18.5966C123.72 18.9021 123.02 19.3789 122.446 19.9924C121.842 20.6368 121.37 21.3967 121.056 22.2283C120.295 24.2735 120.283 26.5294 121.022 28.5828C121.33 29.4144 121.792 30.178 122.383 30.8317C122.951 31.4519 123.647 31.9359 124.42 32.2491C125.961 32.8791 127.68 32.8868 129.226 32.2706H129.23Z" fill="#191B20"/>
<path d="M142.831 1.23741C143.215 0.835119 143.675 0.517695 144.184 0.304959C144.693 0.0922209 145.24 -0.0112619 145.79 0.000970838C146.35 -0.00755833 146.905 0.100365 147.423 0.318145C147.94 0.535922 148.409 0.858979 148.8 1.26756C149.566 2.10061 149.981 3.20629 149.958 4.34789C149.961 4.90933 149.853 5.46566 149.64 5.98356C149.427 6.50147 149.114 6.97033 148.72 7.36207C148.325 7.75381 147.857 8.06041 147.343 8.2635C146.83 8.46657 146.281 8.562 145.731 8.54402C145.179 8.55292 144.631 8.44538 144.122 8.22814C143.613 8.01093 143.153 7.68869 142.772 7.28173C142.387 6.89408 142.084 6.4306 141.88 5.91954C141.677 5.40848 141.578 4.86054 141.589 4.30911C141.579 3.73778 141.685 3.17053 141.898 2.64226C142.112 2.114 142.43 1.6359 142.831 1.23741ZM143.157 12.7014L148.368 12.7272C148.473 12.7278 148.576 12.7493 148.672 12.7905C148.768 12.8317 148.856 12.8919 148.929 12.9675C149.003 13.0431 149.061 13.1327 149.1 13.2312C149.139 13.3297 149.159 13.4351 149.159 13.5415L149.036 37.5551C149.032 37.7672 148.945 37.969 148.796 38.1167C148.646 38.2643 148.446 38.3458 148.237 38.3435H143.03C142.926 38.3423 142.822 38.3201 142.726 38.2781C142.63 38.236 142.543 38.1748 142.471 38.0983C142.398 38.0219 142.341 37.9314 142.303 37.8321C142.264 37.733 142.246 37.6271 142.248 37.5205L142.366 13.507C142.368 13.2937 142.451 13.0894 142.599 12.9386C142.747 12.7878 142.947 12.7025 143.157 12.7014Z" fill="#191B20"/>
<path d="M158.213 32.6812C158.979 33.4653 160.099 33.8875 161.595 33.8962C162.483 33.9578 163.365 33.7018 164.088 33.1724C164.351 32.9502 164.562 32.6723 164.708 32.3583C164.854 32.0444 164.931 31.7017 164.934 31.3544C164.939 31.0732 164.887 30.7939 164.783 30.5333C164.68 30.2727 164.526 30.0361 164.329 29.8378C163.907 29.3682 163.209 29.0495 162.237 28.8384L158.902 28.0457C156.451 27.4598 154.676 26.5164 153.547 25.155C152.447 23.8079 151.858 22.1035 151.886 20.3514C151.891 19.2337 152.141 18.1311 152.617 17.1245C153.074 16.095 153.762 15.189 154.625 14.4793C155.487 13.687 156.492 13.0726 157.584 12.6699C158.774 12.2044 160.042 11.9805 161.316 12.0108C162.852 11.9775 164.38 12.2512 165.813 12.8164C166.934 13.2241 167.958 13.8686 168.819 14.7077C169.537 15.4048 170.112 16.2411 170.508 17.1676C170.718 17.646 170.89 18.14 171.025 18.6453C171.049 18.7504 171.054 18.8594 171.036 18.9661C171.02 19.0726 170.982 19.1747 170.926 19.2663C170.869 19.3578 170.795 19.4369 170.708 19.4989C170.622 19.561 170.523 19.6048 170.42 19.6276L166.257 20.5625C166.062 20.6067 165.857 20.5736 165.683 20.4695C165.511 20.3656 165.383 20.1986 165.328 20.0024C165.287 19.8559 165.237 19.7121 165.178 19.5715C165.013 19.1349 164.754 18.7417 164.418 18.4213C164.057 18.0538 163.626 17.7676 163.15 17.5813C162.582 17.3511 161.974 17.2413 161.362 17.258C160.554 17.2384 159.762 17.4913 159.109 17.9776C158.803 18.1711 158.552 18.4426 158.379 18.765C158.206 19.0873 158.119 19.4499 158.125 19.8172C158.108 20.1045 158.159 20.392 158.273 20.6552C158.388 20.9183 158.563 21.1496 158.784 21.3294C159.26 21.7229 159.823 21.9935 160.424 22.1177L163.995 22.9146C166.498 23.4489 168.332 24.4484 169.555 25.8614C170.784 27.2057 171.451 28.9864 171.413 30.8243C171.405 31.8794 171.192 32.922 170.784 33.8918C170.397 34.9234 169.779 35.8484 168.979 36.593C168.093 37.4302 167.053 38.0803 165.919 38.5058C162.95 39.4969 159.739 39.4392 156.806 38.3422C155.654 37.8461 154.591 37.1573 153.661 36.3044C152.887 35.5777 152.28 34.6844 151.886 33.6894C151.642 33.1658 151.449 32.6189 151.311 32.0566C151.286 31.9515 151.282 31.8425 151.3 31.7358C151.317 31.6293 151.355 31.5273 151.412 31.436C151.469 31.3449 151.543 31.2662 151.63 31.2048C151.717 31.1433 151.816 31.1004 151.92 31.0786L156.197 30.1566C156.397 30.1124 156.606 30.1494 156.78 30.2595C156.953 30.3697 157.078 30.5446 157.127 30.7468C157.314 31.4786 157.689 32.1465 158.213 32.6812Z" fill="#191B20"/>
<path d="M195.216 34.4399C194.544 35.4231 193.709 36.2815 192.752 36.9774C191.733 37.7258 190.61 38.3167 189.422 38.7308C188.045 39.1557 186.612 39.3592 185.173 39.334C183.484 39.3247 181.807 39.0172 180.22 38.425C178.67 37.8227 177.265 36.8917 176.095 35.6936C174.879 34.4615 173.928 32.9838 173.305 31.3553C172.574 29.5176 172.219 27.5475 172.261 25.5651C172.253 23.6566 172.609 21.7649 173.309 19.9947C173.933 18.4208 174.862 16.9908 176.039 15.79C177.185 14.6304 178.545 13.7163 180.042 13.1017C181.507 12.4474 183.092 12.1184 184.692 12.1367C188.627 12.1367 191.641 13.3688 193.826 15.7254C196.011 18.082 197.068 21.3691 197.046 25.4876C197.053 25.9565 197.035 26.4253 196.992 26.8921C196.969 27.0889 196.876 27.2703 196.73 27.4015C196.584 27.5326 196.396 27.6044 196.201 27.6029L179.843 27.5211C179.727 27.5193 179.612 27.5437 179.506 27.5926C179.401 27.6414 179.306 27.7134 179.23 27.8035C179.155 27.8937 179.101 27.9995 179.07 28.1138C179.039 28.228 179.034 28.3478 179.053 28.4645C179.137 28.9498 179.288 29.4209 179.497 29.8647C179.85 30.5477 180.312 31.1653 180.866 31.6914C181.441 32.2272 182.105 32.6534 182.828 32.9494L182.908 32.9795C183.666 33.2544 184.462 33.3999 185.267 33.4103C186.852 33.4103 188.132 33.0613 189.004 32.3333C189.741 31.7632 190.34 31.0257 190.749 30.1793C190.828 30.0044 190.967 29.8647 191.139 29.7856C191.312 29.7064 191.507 29.6933 191.687 29.7484L195.914 31.0409C196.017 31.0719 196.114 31.1242 196.196 31.1945C196.279 31.2648 196.347 31.3517 196.396 31.4498C196.445 31.5479 196.473 31.655 196.479 31.7647C196.486 31.8745 196.471 31.9843 196.433 32.0877C196.129 32.922 195.72 33.7125 195.216 34.4399ZM189.971 21.0201C189.764 20.4019 189.417 19.8423 188.956 19.3873C188.471 18.8755 187.878 18.481 187.224 18.2328C186.45 17.8921 185.614 17.7273 184.772 17.7503C183.959 17.7314 183.153 17.8917 182.405 18.2199C181.761 18.5118 181.171 18.914 180.66 19.4088C180.209 19.8772 179.843 20.4225 179.578 21.0201C179.468 21.264 179.375 21.5159 179.302 21.7741C179.271 21.8937 179.266 22.0193 179.289 22.1409C179.314 22.2625 179.365 22.3771 179.438 22.4754C179.512 22.5737 179.607 22.6534 179.717 22.7081C179.825 22.7629 179.947 22.7911 180.068 22.7907L189.438 22.8424C189.559 22.8424 189.677 22.8147 189.786 22.7612C189.894 22.708 189.989 22.6303 190.064 22.5342C190.14 22.438 190.192 22.3259 190.218 22.2063C190.245 22.0866 190.243 21.9624 190.217 21.8429C190.161 21.5612 190.079 21.2855 189.971 21.0201Z" fill="#191B20"/>
<path d="M204.675 14.2811C204.447 14.3756 204.239 14.5185 204.067 14.7009C203.887 14.9112 203.744 15.1524 203.644 15.4139C203.531 15.7197 203.477 16.0455 203.485 16.3731C203.474 16.7005 203.525 17.0268 203.634 17.3336C203.731 17.5985 203.872 17.8431 204.051 18.0561C204.226 18.2471 204.436 18.3979 204.67 18.4987C204.913 18.5988 205.17 18.6499 205.431 18.6493C205.663 18.6531 205.896 18.6101 206.114 18.5229C206.306 18.4539 206.486 18.3502 206.644 18.2161C206.783 18.094 206.901 17.9458 206.988 17.779C207.035 17.6967 207.08 17.6113 207.116 17.5233C207.142 17.4661 207.186 17.4207 207.24 17.3958C207.296 17.371 207.358 17.3684 207.414 17.3887L208.789 17.8771C208.848 17.8991 208.897 17.944 208.925 18.0025C208.953 18.0609 208.958 18.1282 208.938 18.1905C208.853 18.4485 208.738 18.6947 208.597 18.9238C208.394 19.2508 208.14 19.5407 207.847 19.782C207.529 20.0515 207.171 20.2642 206.788 20.4117C206.347 20.5645 205.885 20.6387 205.419 20.631C204.883 20.6377 204.351 20.5235 203.859 20.296C203.377 20.0947 202.941 19.7936 202.574 19.4108C202.205 19.0235 201.915 18.5627 201.72 18.0561C201.513 17.518 201.41 16.9422 201.418 16.3623C201.417 15.777 201.525 15.197 201.736 14.6551C201.927 14.1551 202.212 13.7008 202.574 13.3197C202.936 12.9385 203.369 12.6386 203.846 12.4381C204.339 12.2287 204.867 12.1261 205.4 12.1367C205.875 12.1354 206.347 12.2149 206.796 12.3722C207.176 12.5239 207.53 12.7343 207.85 12.9964C208.14 13.2366 208.386 13.5302 208.576 13.8627C208.712 14.1004 208.825 14.353 208.91 14.6161C208.928 14.6796 208.923 14.7483 208.894 14.8074C208.866 14.8665 208.815 14.9113 208.755 14.9323L207.342 15.4193C207.283 15.4391 207.221 15.4347 207.163 15.407C207.107 15.3792 207.065 15.3302 207.042 15.2699C206.939 15.007 206.785 14.7684 206.593 14.5677C206.335 14.2892 205.942 14.1412 205.431 14.1385C205.172 14.136 204.916 14.1844 204.675 14.2811Z" fill="#191B20"/>
<path d="M214.716 12.4943C215.19 12.7006 215.621 13.0012 215.985 13.3795C216.347 13.7681 216.629 14.2288 216.818 14.7342C217.018 15.278 217.116 15.8574 217.104 16.4401C217.111 17.0192 217.008 17.5942 216.801 18.1311C216.608 18.6344 216.321 19.0921 215.956 19.4764C215.588 19.8511 215.154 20.1473 214.679 20.3482C214.172 20.5704 213.627 20.6786 213.077 20.6657C212.528 20.676 211.983 20.5655 211.478 20.3415C211.004 20.1351 210.573 19.8345 210.209 19.4562C209.847 19.0657 209.565 18.6025 209.38 18.0947C209.177 17.5558 209.08 16.98 209.093 16.4011C209.086 15.816 209.188 15.2352 209.393 14.6912C209.586 14.1881 209.873 13.7307 210.239 13.3459C210.609 12.9713 211.045 12.6753 211.522 12.4741C212.556 12.0684 213.695 12.0747 214.723 12.4916L214.716 12.4943ZM213.818 18.5589C214.054 18.4638 214.267 18.3145 214.441 18.1218C214.625 17.9202 214.767 17.6835 214.864 17.4248C214.982 17.1113 215.041 16.7769 215.039 16.4401C215.044 16.1009 214.989 15.7638 214.872 15.4472C214.779 15.1872 214.638 14.9486 214.457 14.745C214.285 14.5507 214.072 14.3995 213.836 14.3024C213.371 14.102 212.848 14.0967 212.378 14.2876C212.142 14.3826 211.928 14.5315 211.755 14.7235C211.571 14.9253 211.427 15.1624 211.332 15.4217C211.212 15.7373 211.153 16.0739 211.155 16.4131C211.15 16.7522 211.206 17.0892 211.32 17.406C211.415 17.6659 211.556 17.9043 211.737 18.1083C211.91 18.302 212.122 18.4532 212.356 18.5509C212.589 18.6487 212.836 18.6998 213.086 18.7015C213.336 18.702 213.584 18.6536 213.817 18.5589H213.818Z" fill="#191B20"/>
<path d="M218.047 12.4501L219.537 12.4581C219.57 12.4579 219.601 12.4644 219.63 12.4771C219.66 12.4898 219.688 12.5086 219.709 12.5322C219.732 12.5558 219.75 12.584 219.762 12.6149C219.775 12.6458 219.781 12.679 219.78 12.7124V12.7312C219.781 12.7793 219.794 12.8263 219.819 12.8667C219.844 12.9071 219.88 12.9392 219.921 12.9591C219.963 12.9791 220.009 12.9861 220.055 12.9793C220.099 12.9726 220.142 12.9523 220.178 12.9209C220.35 12.7703 220.539 12.6429 220.742 12.5415C220.945 12.44 221.161 12.3645 221.383 12.3169C221.594 12.2683 221.809 12.2422 222.025 12.2388C222.507 12.2289 222.982 12.3494 223.405 12.5886C223.687 12.7529 223.928 12.9832 224.11 13.2613C224.13 13.2939 224.157 13.3211 224.19 13.3405C224.223 13.3599 224.261 13.371 224.297 13.3729C224.334 13.3749 224.372 13.3676 224.407 13.3518C224.441 13.3359 224.471 13.3118 224.495 13.2815C224.721 12.9763 225.013 12.7312 225.347 12.5658C225.772 12.3583 226.237 12.2578 226.706 12.2725C227.057 12.2749 227.403 12.3371 227.734 12.4568C228.06 12.5715 228.36 12.7546 228.616 12.9949C228.889 13.2623 229.101 13.5918 229.232 13.9581C229.397 14.3931 229.474 14.8588 229.46 15.3263L229.435 20.2636C229.435 20.3306 229.409 20.3945 229.363 20.4416C229.317 20.4888 229.256 20.5152 229.193 20.5152L227.672 20.5071C227.64 20.507 227.609 20.5002 227.58 20.4873C227.55 20.4745 227.524 20.4557 227.501 20.4321C227.48 20.4085 227.462 20.3804 227.45 20.3498C227.437 20.319 227.432 20.286 227.432 20.2528L227.454 15.7541C227.47 15.3697 227.362 14.991 227.149 14.6779C226.932 14.3833 226.591 14.2353 226.11 14.2326C225.913 14.2216 225.716 14.258 225.536 14.3389C225.356 14.4198 225.195 14.5432 225.067 14.6994C224.815 15.0061 224.68 15.3995 224.689 15.8039L224.667 20.2434C224.667 20.2767 224.661 20.3095 224.648 20.3401C224.636 20.3708 224.618 20.3985 224.595 20.4219C224.572 20.4452 224.546 20.4637 224.516 20.4762C224.487 20.4888 224.456 20.4952 224.425 20.495L222.853 20.4788C222.791 20.4784 222.728 20.4517 222.684 20.4042C222.638 20.3568 222.614 20.2927 222.614 20.2259L222.636 15.7272C222.651 15.3354 222.538 14.95 222.315 14.6348C222.1 14.3577 221.758 14.2097 221.288 14.207C220.819 14.2043 220.48 14.3496 220.23 14.6564C219.978 14.9692 219.844 15.3677 219.852 15.777L219.83 20.2165C219.83 20.2496 219.824 20.2826 219.811 20.3132C219.799 20.3437 219.781 20.3716 219.758 20.3949C219.737 20.4183 219.709 20.4368 219.68 20.4493C219.65 20.4619 219.619 20.4683 219.588 20.4681L218.005 20.4599C217.972 20.4598 217.941 20.453 217.911 20.4403C217.883 20.4273 217.855 20.4086 217.834 20.385C217.811 20.3614 217.795 20.3334 217.782 20.3026C217.77 20.2719 217.764 20.239 217.764 20.2057L217.801 12.707C217.801 12.673 217.806 12.6391 217.819 12.6075C217.831 12.5759 217.849 12.5472 217.872 12.5232C217.895 12.4992 217.923 12.4803 217.952 12.4677C217.983 12.4551 218.016 12.4491 218.047 12.4501Z" fill="#191B20"/>
</g>
<defs>
<linearGradient id="paint0_linear_1283_366" x1="48.3877" y1="25.9841" x2="21.3862" y2="32.9562" gradientUnits="userSpaceOnUse">
<stop stop-color="#5CEE9C"/>
<stop offset="1" stop-color="#FFFB1F"/>
</linearGradient>
<clipPath id="clip0_1283_366">
<rect width="229" height="40" fill="white"/>
</clipPath>
</defs>
</svg>
